<?xml version="1.0" standalone="no"?>
<svg version="1.0" xmlns="http://www.w3.org/2000/svg"
     width="40" height="40" viewBox="0 0 1500.000000 1500.000000"
     preserveAspectRatio="xMidYMid meet">
    <rect fill="white" stroke-width="120" height="1500" width="1500" y="0" x="0" stroke-dasharray="null" stroke="#00ff00"/>
    <ellipse fill="red" stroke="#000000" stroke-width="5" stroke-dasharray="null" cx="955" cy="665" rx="64" ry="64"/>

    <g transform="translate(0.000000,1560.000000) scale(0.100000,-0.100000)"
       fill="#121212" stroke="none">
        <path d="M6830 13980 c-93 -10 -218 -39 -380 -90 -298 -93 -368 -102 -805
-101 -496 1 -654 -13 -940 -83 -335 -83 -571 -199 -714 -351 -74 -80 -128
-188 -196 -395 -26 -80 -90 -248 -142 -375 -214 -520 -252 -682 -253 -1064 l0
-133 -37 7 c-21 3 -108 21 -193 40 -301 65 -419 69 -600 20 -73 -20 -577 -225
-567 -230 1 -1 83 2 182 7 99 5 207 7 240 6 l59 -3 11 -60 10 -59 99 -37 c54
-21 99 -39 101 -41 1 -2 -4 -835 -11 -1853 -7 -1017 -13 -2100 -14 -2405 l-2
-555 72 -54 72 -53 -2 -1037 c-3 -915 -1 -1046 13 -1121 32 -171 82 -278 171
-365 115 -114 224 -148 471 -150 130 -1 184 -6 230 -19 146 -43 278 -152 395
-328 l62 -93 98 -31 c223 -70 324 -177 324 -340 0 -68 -3 -79 -59 -191 -32
-65 -76 -137 -98 -161 -109 -121 -161 -387 -155 -787 l3 -190 117 156 c158
211 229 272 367 315 76 25 233 29 336 9 144 -27 222 -67 424 -218 144 -109
217 -152 302 -182 35 -13 29 -4 -74 98 -473 471 -747 1156 -947 2361 -35 212
-39 252 -29 288 26 99 129 194 199 185 50 -6 179 -59 263 -109 320 -185 606
-527 930 -1115 55 -99 235 -460 427 -858 l29 -60 0 50 c1 70 -24 276 -59 484
-59 358 -77 539 -65 665 l7 77 54 -51 c57 -54 145 -100 229 -119 125 -28 567
-38 905 -21 364 18 504 39 803 118 81 22 147 37 147 35 0 -2 -15 -48 -34 -102
-39 -113 -79 -283 -97 -421 -27 -199 -14 -566 33 -925 l12 -90 13 100 c74 582
145 928 263 1270 111 321 273 629 461 877 33 42 63 79 68 82 5 4 14 -18 21
-46 51 -240 61 -655 21 -928 -12 -85 -28 -184 -36 -220 -7 -35 -12 -66 -11
-67 1 -2 30 54 64 124 126 264 179 501 227 1018 18 195 49 417 71 513 33 146
84 292 84 241 0 -53 171 -1270 241 -1719 121 -778 300 -1706 397 -2065 l8 -30
490 -2 489 -3 -90 48 c-403 214 -770 609 -959 1030 -49 109 -110 285 -104 302
1 5 30 -27 63 -72 68 -95 199 -235 244 -261 l31 -18 -34 78 c-18 43 -61 140
-95 217 -34 76 -60 140 -58 142 7 7 151 -122 247 -222 159 -165 298 -346 545
-707 70 -103 146 -204 169 -223 56 -48 185 -110 278 -134 215 -54 390 -27 456
70 23 33 24 41 18 138 -50 865 -550 1678 -1385 2255 -73 50 -113 85 -133 117
-52 82 -26 130 73 130 52 0 155 -34 578 -189 151 -56 276 -99 278 -98 1 2 -53
27 -121 56 -259 110 -667 331 -811 439 -89 66 -103 132 -37 166 64 33 92 31
265 -23 555 -171 1097 -410 1497 -659 230 -143 477 -338 624 -492 l79 -82 -43
-22 c-24 -12 -57 -39 -74 -60 -27 -33 -31 -46 -31 -97 0 -32 -3 -59 -6 -59 -7
0 -115 75 -244 169 -55 40 -127 87 -160 103 -112 57 -258 88 -319 68 -89 -29
-55 -88 213 -369 713 -748 1048 -1162 1321 -1629 l65 -111 478 -1 477 0 0 231
0 232 -187 189 c-104 105 -237 233 -298 286 -217 190 -326 292 -700 662 -209
206 -436 427 -505 490 -430 394 -804 655 -1245 870 -257 125 -404 179 -1035
380 -276 89 -491 168 -637 236 -156 72 -261 193 -250 288 3 23 47 165 99 316
53 156 116 362 143 475 l49 199 72 84 c41 48 74 96 78 114 11 54 6 140 -14
272 -34 218 -24 329 50 596 55 201 212 628 275 750 18 36 71 127 118 202 129
210 155 290 178 548 12 138 8 324 -12 625 -10 144 -15 172 -51 280 -38 116
-40 126 -48 305 -9 198 -19 283 -80 680 -60 390 -73 523 -74 745 -1 221 1 234
70 447 62 193 76 260 76 368 -1 125 -22 205 -88 332 -30 57 -99 194 -153 305
-55 112 -119 231 -143 264 -74 106 -319 297 -589 460 -161 96 -530 284 -724
367 -467 202 -825 294 -1346 347 -174 18 -798 28 -919 15z m110 -1755 c52 -9
197 -38 321 -65 459 -100 571 -103 954 -24 211 44 242 48 375 48 142 1 147 0
254 -37 446 -153 802 -507 1061 -1052 103 -216 107 -231 104 -370 -2 -66 -4
-178 -4 -250 0 -156 6 -172 140 -374 122 -184 146 -269 94 -335 -37 -47 -73
-49 -366 -21 -560 52 -1072 70 -1288 44 -119 -14 -249 -58 -359 -122 l-90 -52
-226 0 c-257 1 -243 -2 -424 110 -166 103 -288 124 -711 125 -487 0 -1071 -46
-1659 -130 l-210 -31 -20 21 c-17 17 -21 33 -21 93 0 128 35 177 189 265 55
31 115 72 134 91 33 33 34 37 29 91 -9 108 -67 193 -274 400 -58 58 -119 124
-135 148 -108 157 -167 393 -124 495 14 35 131 150 271 268 505 424 995 638
1560 683 94 7 330 -3 425 -19z m-251 -2460 c61 -7 114 -30 109 -48 -9 -26 -79
-49 -170 -54 -183 -11 -321 44 -219 87 34 14 154 29 196 24 17 -2 54 -6 84 -9z
m1966 -592 c12 -33 21 -208 14 -298 -6 -89 -22 -141 -39 -130 -30 18 -39 347
-11 418 12 31 26 35 36 10z m-717 -99 c13 -9 35 -36 50 -61 15 -25 149 -228
297 -452 149 -223 295 -444 325 -491 124 -193 320 -345 530 -412 73 -22 86
-23 420 -23 190 0 424 2 520 5 l175 5 3 -70 c5 -98 -13 -234 -53 -416 -108
-482 -179 -631 -343 -711 -58 -29 -78 -33 -162 -36 -65 -3 -115 1 -157 12 -33
9 -64 16 -67 16 -12 0 6 -71 79 -320 106 -358 130 -484 142 -742 4 -110 3
-154 -7 -178 -15 -37 -76 -84 -210 -163 -128 -75 -177 -111 -193 -144 -8 -16
-19 -76 -26 -135 -29 -265 -78 -364 -301 -618 -115 -131 -181 -229 -204 -306
-9 -32 -24 -78 -33 -102 -61 -173 -419 -285 -858 -269 -229 8 -395 41 -514
102 -50 25 -171 146 -267 265 -90 112 -216 291 -364 520 -243 373 -298 445
-589 761 -178 194 -302 371 -315 449 -8 49 -3 86 36 265 50 230 40 303 -53
409 -47 53 -146 106 -198 106 -100 -1 -198 -97 -290 -282 -94 -191 -128 -350
-109 -512 6 -43 35 -160 65 -260 44 -144 56 -200 60 -273 5 -74 2 -97 -10
-116 -21 -32 -76 -57 -125 -57 -37 0 -45 6 -106 71 -143 155 -243 313 -288
459 -17 58 -23 98 -22 175 0 119 16 181 108 423 35 92 71 190 79 218 56 189
44 539 -24 761 -12 37 -59 156 -105 265 -114 268 -121 307 -60 352 39 30 130
32 504 10 385 -23 1010 -26 1177 -6 229 27 378 74 480 151 85 64 196 247 440
727 206 403 300 576 329 603 51 48 177 61 234 25z m1691 -123 c36 -19 79 -61
99 -97 7 -13 42 -7 251 44 133 32 239 56 234 52 -4 -4 -110 -42 -235 -86
l-228 -79 0 -41 c0 -37 -22 -92 -59 -150 -12 -19 -8 -32 49 -135 35 -63 74
-133 87 -156 14 -24 23 -43 20 -43 -2 0 -55 65 -117 144 -105 136 -113 144
-137 135 -39 -15 -115 -10 -159 10 -55 25 -110 92 -124 152 -45 185 149 336
319 250z m-2849 -218 c16 -9 33 -27 39 -40 49 -108 -74 -202 -161 -124 -28 25
-33 36 -33 74 0 86 82 133 155 90z m1962 -72 c41 -45 39 -92 -6 -137 -30 -30
-40 -34 -86 -34 -46 0 -56 4 -86 34 -48 48 -47 95 1 143 34 34 38 35 92 31 48
-4 61 -10 85 -37z m-5047 -1333 c41 -18 55 -57 55 -149 0 -101 33 -298 63
-383 31 -83 68 -130 130 -161 78 -39 128 -30 168 31 39 60 21 128 -66 239 -75
96 -103 164 -90 218 8 31 39 44 61 26 23 -19 159 -298 189 -389 23 -68 25 -89
19 -148 -6 -63 -4 -75 22 -133 27 -60 29 -72 29 -199 0 -145 -14 -223 -47
-265 -18 -24 -25 -25 -116 -25 -249 1 -402 72 -442 202 -7 24 -16 103 -21 176
-8 141 -18 185 -55 243 -30 49 -112 277 -131 364 -16 76 -11 141 14 189 28 54
155 176 184 176 4 0 20 -5 34 -12z"/>
        <path d="M7485 7283 c-85 -19 -95 -24 -95 -45 0 -26 64 -86 105 -97 18 -5 54
-4 88 2 47 8 76 6 174 -12 79 -15 145 -21 197 -19 99 4 113 23 23 31 -80 7
-150 34 -257 97 -80 47 -89 50 -150 49 -36 -1 -74 -3 -85 -6z"/>
        <path d="M8327 7229 c-42 -10 -132 -54 -142 -69 -8 -13 -1 -13 68 1 48 10 60
9 82 -5 14 -9 25 -22 25 -29 0 -6 4 -18 9 -26 10 -16 51 -6 51 14 0 18 56 64
88 71 40 10 43 13 32 35 -9 17 -21 19 -93 18 -45 -1 -99 -5 -120 -10z"/>
        <path d="M7315 6139 c-108 -8 -288 -42 -340 -63 -17 -8 -49 -29 -70 -47 -61
-54 -205 -239 -205 -263 0 -46 14 -46 188 0 206 54 291 83 504 173 91 38 203
80 247 92 80 22 83 22 184 6 132 -22 178 -21 257 3 36 11 76 20 90 21 23 0 23
1 5 9 -11 5 -69 6 -130 3 -97 -5 -121 -3 -205 20 -151 41 -359 59 -525 46z"/>
        <path d="M8327 6061 c-15 -5 -8 -12 34 -31 80 -37 196 -110 371 -231 93 -65
167 -109 181 -109 101 0 52 186 -72 272 -53 37 -160 77 -259 97 -59 12 -227
14 -255 2z"/>
        <path d="M1060 11114 c0 -22 -47 -1476 -105 -3233 -58 -1756 -105 -3201 -105
-3212 0 -18 -11 -19 -279 -19 l-278 0 4 -118 c2 -64 17 -803 33 -1642 16 -839
33 -1603 36 -1698 l6 -172 994 0 994 0 0 128 c0 126 0 128 -36 202 -51 106
-46 147 39 328 36 75 69 158 75 183 6 30 2 335 -13 896 l-21 850 -49 82 -48
82 -21 1177 -21 1177 -175 5 c-96 3 -177 4 -180 2 -2 -2 -19 -406 -36 -898
-17 -492 -33 -896 -35 -898 -2 -3 -64 473 -138 1057 -74 584 -136 1066 -139
1071 -3 5 -54 -179 -113 -410 -60 -230 -112 -427 -116 -437 -6 -12 -30 137
-67 405 -31 233 -61 431 -65 442 -5 13 -12 -7 -25 -65 -34 -160 -58 -260 -62
-257 -6 7 -104 1748 -104 1852 0 114 108 2366 114 2381 3 6 5 -6 6 -25 6 -145
38 -522 43 -510 3 8 26 159 52 334 25 176 47 321 49 323 2 2 54 -177 117 -397
63 -220 116 -393 117 -384 2 9 36 330 76 714 l72 698 -41 6 c-22 3 -156 8
-297 12 l-258 7 0 -39z"/>
        <path d="M1906 10938 c-3 -51 -14 -958 -25 -2014 l-21 -1921 81 -229 80 -229
-3 -142 -4 -143 58 0 58 0 0 128 c0 70 18 1117 40 2327 22 1210 40 2226 40
2258 l0 57 -149 0 -149 0 -6 -92z"/>
        <path d="M2705 3187 c-3 -204 -5 -453 -3 -551 l3 -179 254 214 c358 303 351
297 406 324 117 58 234 53 392 -16 68 -30 103 -52 133 -86 80 -86 124 -219
136 -412 18 -262 -87 -644 -283 -1035 l-45 -89 32 27 c50 42 105 66 150 66 40
0 108 -28 143 -58 16 -14 17 14 17 589 0 483 -3 622 -15 695 -32 201 -92 332
-200 439 -126 126 -245 170 -505 185 -175 10 -236 21 -330 59 -79 32 -139 73
-219 146 l-59 55 -7 -373z"/>
    </g>
</svg>
